# Blender v3.4.1 OBJ File: ''
# www.blender.org
mtllib MainBuilding.mtl
o Plane.001_Plane.002
v 0.995161 1.599825 -0.060976
v -0.994982 1.599825 -0.060976
v 0.992428 -0.624758 -0.060976
v 1.561040 -0.375990 -0.060976
v 1.558306 -2.081828 -0.060976
v 0.013758 -2.081828 -0.060976
v 0.008291 -1.720977 -0.060976
v 0.210585 -1.587025 -0.060976
v -1.008651 -1.600694 -0.060976
v -1.399572 -0.649361 -0.060976
v -1.391371 0.632751 -0.060976
v -0.997716 1.206831 -0.060976
v 0.973888 1.578578 -0.004889
v -0.973882 1.578578 -0.004889
v 0.971140 -0.657263 -0.004889
v 1.539741 -0.408500 -0.004889
v 1.537093 -2.060580 -0.004889
v 0.034686 -2.060580 -0.004889
v 0.029712 -1.732276 -0.004889
v 0.282376 -1.564971 -0.004889
v -0.994476 -1.579286 -0.004889
v -1.378298 -0.645231 -0.004889
v -1.370166 0.626105 -0.004889
v -0.976515 1.200179 -0.004889
v 0.973888 1.578578 0.708293
v -0.973882 1.578578 0.708293
v 0.971140 -0.657263 0.708293
v 1.539741 -0.408500 0.708293
v 1.537093 -2.060580 0.708293
v 0.034686 -2.060580 0.708293
v 0.029712 -1.732276 0.708293
v 0.282376 -1.564971 0.708293
v -0.994476 -1.579286 0.708293
v -1.378298 -0.645231 0.708293
v -1.370166 0.626105 0.708293
v -0.976515 1.200179 0.708293
v 0.995161 1.599825 0.708293
v -0.994982 1.599825 0.708293
v 0.992428 -0.624758 0.708293
v 1.561040 -0.375990 0.708293
v 1.558306 -2.081828 0.708293
v 0.013758 -2.081828 0.708293
v 0.008291 -1.720977 0.708293
v 0.210585 -1.587025 0.708293
v -1.008651 -1.600694 0.708293
v -1.399572 -0.649361 0.708293
v -1.391371 0.632751 0.708293
v -0.997716 1.206831 0.708293
v 0.994680 1.207897 0.708293
v 0.973488 1.253334 -0.004889
v 0.973435 1.210363 0.708293
v 0.994739 1.256469 -0.060976
v 0.993934 0.600712 0.708293
v 0.972700 0.612372 -0.004889
v 0.972678 0.594398 0.708293
v 0.993980 0.638520 -0.060976
v 1.559120 -1.573992 -0.060976
v 1.558802 -1.772868 -0.060976
v 1.559146 -1.558246 0.708293
v 1.558883 -1.722033 0.708293
v 1.537900 -1.556967 0.708293
v 1.537869 -1.576369 -0.004889
v 1.537631 -1.725085 0.708293
v 1.537452 -1.836611 -0.004889
vt 0.055242 1.000000
vt 0.054882 0.948312
vt 0.321247 0.955573
vt 0.321301 1.000000
vt 0.908671 0.502902
vt 0.962301 0.502902
vt 0.962301 0.607982
vt 0.908671 0.607982
vt 0.803591 0.502902
vt 0.803591 0.632372
vt 0.706173 0.632372
vt 0.706173 0.502902
vt 0.906239 0.232833
vt 0.906239 0.466984
vt 0.808821 0.466984
vt 0.808821 0.232833
vt 0.901010 0.742146
vt 0.985569 0.742146
vt 0.985569 0.847226
vt 0.901010 0.847226
vt 0.706173 0.808081
vt 0.706173 0.962506
vt 0.608754 0.962506
vt 0.608754 0.808081
vt 0.901009 0.847226
vt 0.985501 0.847226
vt 0.985501 0.952306
vt 0.901009 0.952306
vt 0.398595 0.809734
vt 0.398595 0.634767
vt 0.503675 0.634767
vt 0.503675 0.809734
vt 0.957955 0.607982
vt 0.999181 0.607982
vt 0.999181 0.705400
vt 0.957955 0.705400
vt 0.608754 0.502902
vt 0.608754 0.675332
vt 0.503675 0.670172
vt 0.503675 0.502902
vt 0.398595 0.502902
vt 0.503675 0.502902
vt 0.913901 0.097418
vt 0.958740 0.097418
vt 0.958740 0.194837
vt 0.913901 0.194837
vt 0.750673 0.002902
vt 0.484614 0.002902
vt 0.481708 0.000000
vt 0.753555 0.000000
vt 0.484675 0.053199
vt 0.481773 0.053536
vt 0.484989 0.308311
vt 0.407320 0.274331
vt 0.404410 0.269890
vt 0.482081 0.303871
vt 0.407571 0.431208
vt 0.404669 0.431383
vt 0.407681 0.500000
vt 0.612906 0.500000
vt 0.615764 0.502902
vt 0.404784 0.502902
vt 0.613585 0.455155
vt 0.616511 0.453611
vt 0.579072 0.432301
vt 0.588878 0.435314
vt 0.753486 0.434257
vt 0.755422 0.437181
vt 0.805915 0.306668
vt 0.808821 0.307232
vt 0.804804 0.133007
vt 0.807701 0.132099
vt 0.751032 0.054590
vt 0.753929 0.053682
vt 0.706173 0.502902
vt 0.706173 0.547296
vt 0.608754 0.553162
vt 0.608754 0.502902
vt 0.608754 0.806545
vt 0.608754 0.992222
vt 0.503675 0.992222
vt 0.503675 0.806545
vt 0.803591 0.805868
vt 0.706173 0.805868
vt 0.906239 0.330252
vt 0.990729 0.330252
vt 0.990729 0.427670
vt 0.906239 0.427670
vt 0.908671 0.607982
vt 0.957955 0.607982
vt 0.957955 0.713062
vt 0.908671 0.713062
vt 0.906239 0.232833
vt 0.990798 0.232833
vt 0.990798 0.330252
vt 0.906239 0.330252
vt 0.901010 0.742146
vt 0.901010 0.901551
vt 0.803591 0.898903
vt 0.803591 0.742146
vt 0.958740 0.097418
vt 0.991747 0.097418
vt 0.991747 0.202498
vt 0.958740 0.202498
vt 0.913901 0.000000
vt 0.965539 0.000000
vt 0.965539 0.097418
vt 0.913901 0.097418
vt 0.803591 0.805868
vt 0.803591 0.986479
vt 0.706173 0.986479
vt 0.706173 0.805868
vt 0.503675 0.809734
vt 0.503675 0.957190
vt 0.398595 0.957190
vt 0.398595 0.809734
vt 0.908671 0.502902
vt 0.908671 0.742146
vt 0.803591 0.742146
vt 0.803591 0.502902
vt 0.055266 0.000000
vt 0.327113 0.000000
vt 0.327055 0.046901
vt 0.054892 0.053682
vt 0.706173 0.634784
vt 0.608754 0.637237
vt 0.326952 0.131311
vt 0.001120 0.132099
vt 0.503675 0.753049
vt 0.608754 0.759679
vt 0.608754 0.806545
vt 0.503675 0.806545
vt 0.001111 0.869895
vt 0.321139 0.868019
vt 0.484779 0.137338
vt 0.481875 0.136476
vt 0.000000 0.696235
vt 0.320926 0.694591
vt 0.706173 0.808081
vt 0.608754 0.808081
vt 0.326740 0.303871
vt 0.000000 0.307232
vt 0.052429 0.568646
vt 0.226843 0.570601
vt 0.219943 0.435314
vt 0.053399 0.437181
vt 0.192330 0.547748
vt 0.398282 0.533496
vt 0.398339 0.569044
vt 0.404410 0.269890
vt 0.404148 0.433533
vt 0.404105 0.460699
vt 0.192310 0.453611
vt 0.404037 0.502902
vt 0.193057 0.502902
vt 0.808821 0.071465
vt 0.913900 0.069316
vt 0.913900 0.232833
vt 0.808821 0.232833
vt 0.808821 0.049109
vt 0.808821 0.000000
vt 0.913900 0.000000
vt 0.913900 0.042171
vt 0.407608 0.454172
vt 0.404705 0.453755
vt 0.398595 0.728571
vt 0.901010 0.937072
vt 0.803591 0.921850
vt 0.901010 0.967642
vt 0.803591 0.967642
vt 0.193009 0.502902
vt 0.398233 0.502902
vn 0.0000 0.0000 1.0000
vn -1.0000 0.0070 0.0000
vn 0.9250 0.3801 0.0000
vn 0.0000 -1.0000 0.0000
vn -0.8247 0.5655 0.0000
vn -0.0112 0.9999 0.0000
vn -0.4008 0.9162 0.0000
vn -1.0000 0.0064 0.0000
vn 0.5521 -0.8338 0.0000
vn 1.0000 -0.0012 -0.0000
vn -0.9250 -0.3801 0.0000
vn 0.9999 0.0152 0.0000
vn -1.0000 0.0012 -0.0000
vn 1.0000 -0.0064 0.0000
vn 0.4008 -0.9162 0.0000
vn -0.9999 -0.0152 0.0000
vn 0.8247 -0.5655 0.0000
vn -1.0000 0.0016 -0.0000
vn -0.5521 0.8338 0.0000
vn 1.0000 -0.0070 0.0000
vn 0.0000 1.0000 0.0000
vn 0.0112 -0.9999 0.0000
vn 0.0000 0.0000 -1.0000
vn 1.0000 -0.0016 -0.0000
usemtl None
s off
f 14/1/1 24/2/1 50/3/1 13/4/1
f 2/5/2 12/6/2 48/7/2 38/8/2
f 21/9/3 22/10/3 34/11/3 33/12/3
f 14/13/4 13/14/4 25/15/4 26/16/4
f 12/17/5 11/18/5 47/19/5 48/20/5
f 20/21/6 21/22/6 33/23/6 32/24/6
f 4/25/7 3/26/7 39/27/7 40/28/7
f 11/29/8 10/30/8 46/31/8 47/32/8
f 19/33/9 20/34/9 32/35/9 31/36/9
f 3/37/10 56/38/10 53/39/10 39/40/10
f 10/30/11 9/41/11 45/42/11 46/31/11
f 18/43/12 19/44/12 31/45/12 30/46/12
f 26/47/1 25/48/1 37/49/1 38/50/1
f 25/48/1 51/51/1 49/52/1 37/49/1
f 27/53/1 28/54/1 40/55/1 39/56/1
f 28/54/1 61/57/1 59/58/1 40/55/1
f 29/59/1 30/60/1 42/61/1 41/62/1
f 30/60/1 31/63/1 43/64/1 42/61/1
f 31/63/1 32/65/1 44/66/1 43/64/1
f 32/65/1 33/67/1 45/68/1 44/66/1
f 33/67/1 34/69/1 46/70/1 45/68/1
f 34/69/1 35/71/1 47/72/1 46/70/1
f 35/71/1 36/73/1 48/74/1 47/72/1
f 36/73/1 26/47/1 38/50/1 48/74/1
f 13/75/13 50/76/13 51/77/13 25/78/13
f 6/79/4 5/80/4 41/81/4 42/82/4
f 22/10/14 23/83/14 35/84/14 34/11/14
f 15/85/15 16/86/15 28/87/15 27/88/15
f 7/89/16 6/90/16 42/91/16 43/92/16
f 23/93/17 24/94/17 36/95/17 35/96/17
f 16/97/18 62/98/18 61/99/18 28/100/18
f 8/101/19 7/102/19 43/103/19 44/104/19
f 24/105/20 14/106/20 26/107/20 36/108/20
f 17/109/21 18/110/21 30/111/21 29/112/21
f 9/113/22 8/114/22 44/115/22 45/116/22
f 1/117/21 2/118/21 38/119/21 37/120/21
f 2/121/23 1/122/23 52/123/23 12/124/23
f 51/77/13 50/76/13 54/125/13 55/126/13
f 12/124/23 52/123/23 56/127/23 11/128/23
f 49/129/10 52/130/10 1/131/10 37/132/10
f 50/3/1 24/2/1 23/133/1 54/134/1
f 49/52/1 51/51/1 55/135/1 53/136/1
f 54/134/1 23/133/1 22/137/1 15/138/1
f 55/126/13 54/125/13 15/139/13 27/140/13
f 53/136/1 55/135/1 27/53/1 39/56/1
f 11/128/23 56/127/23 3/141/23 10/142/23
f 53/39/10 56/38/10 52/130/10 49/129/10
f 15/138/1 22/137/1 21/143/1 20/144/1
f 10/142/23 3/141/23 8/145/23 9/146/23
f 20/144/1 19/147/1 64/148/1 62/149/1
f 8/145/23 3/141/23 4/150/23 57/151/23
f 57/151/23 58/152/23 7/153/23 8/145/23
f 7/153/23 58/152/23 5/154/23 6/155/23
f 59/156/24 57/157/24 4/158/24 40/159/24
f 60/160/24 41/161/24 5/162/24 58/163/24
f 59/58/1 61/57/1 63/164/1 60/165/1
f 62/149/1 16/166/1 15/138/1 20/144/1
f 61/99/18 62/98/18 64/167/18 63/168/18
f 64/167/18 17/169/18 29/170/18 63/168/18
f 58/163/24 57/157/24 59/156/24 60/160/24
f 64/148/1 19/147/1 18/171/1 17/172/1
f 29/59/1 41/62/1 60/165/1 63/164/1
