# Blender 3.4.1
# www.blender.org
mtllib Walls.mtl
o Plane.001
v 0.995161 1.599825 -0.060976
v -0.994982 1.599825 -0.060976
v 0.992428 -0.624758 -0.060976
v 1.558306 -0.624758 -0.060976
v 1.558306 -2.081828 -0.060976
v 0.269019 -2.081828 -0.060976
v 0.269019 -1.732276 -0.060976
v 0.269019 -1.587025 -0.060976
v -1.399572 -1.600694 -0.060976
v -1.399572 -0.649361 -0.060976
v -1.391371 0.632751 -0.060976
v -1.391367 1.599825 -0.060976
v 0.973888 1.578578 -0.060976
v -0.973882 1.578578 -0.060976
v 0.971140 -0.657263 -0.060976
v 1.537093 -0.657294 -0.060976
v 1.537093 -2.060580 -0.060976
v 0.289947 -2.060580 -0.060976
v 0.289947 -1.732276 -0.060976
v 0.289947 -1.564971 -0.060976
v -1.378298 -1.579286 -0.060976
v -1.378298 -0.645231 -0.060976
v -1.370166 0.626105 -0.060976
v -1.370166 1.578578 -0.060976
v 0.973888 1.578578 0.708293
v -0.973882 1.578578 0.708293
v 0.971140 -0.657263 0.708293
v 1.537093 -0.657294 0.708293
v 1.537093 -2.060580 0.708293
v 0.289947 -2.060580 0.708293
v 0.289947 -1.732276 0.708293
v 0.289947 -1.564971 0.708293
v -1.378298 -1.579286 0.708293
v -1.378298 -0.645231 0.708293
v -1.370166 0.626105 0.708293
v -1.370166 1.578578 0.708293
v 0.995161 1.599825 0.708293
v -0.994982 1.599825 0.708293
v 0.992428 -0.624758 0.708293
v 1.558306 -0.624758 0.708293
v 1.558306 -2.081828 0.708293
v 0.269019 -2.081828 0.708293
v 0.269019 -1.732276 0.708293
v 0.269019 -1.587025 0.708293
v -1.399572 -1.600694 0.708293
v -1.399572 -0.649361 0.708293
v -1.391371 0.632751 0.708293
v -1.391367 1.599825 0.708293
v 0.994680 1.207897 0.708293
v 0.973488 1.253334 -0.060976
v 0.973435 1.210363 0.708293
v 0.994739 1.256469 -0.060976
v 0.993934 0.600712 0.708293
v 0.972700 0.612372 -0.060976
v 0.972678 0.594398 0.708293
v 0.993980 0.638520 -0.060976
v 1.559120 -1.573992 -0.060976
v 1.558802 -1.772868 -0.060976
v 1.559146 -1.558246 0.708293
v 1.558883 -1.722033 0.708293
v 1.537900 -1.556967 0.708293
v 1.537869 -1.576369 -0.060976
v 1.537631 -1.725085 0.708293
v 1.537452 -1.836611 -0.060976
v -0.544887 1.578578 0.000760
v 0.544887 1.578578 0.000760
v 0.544887 1.578578 0.437236
v -0.544887 1.578578 0.437236
v -0.544887 1.599825 0.000760
v -0.544887 1.599825 0.437236
v 0.544887 1.599825 0.000760
v 0.544887 1.599825 0.437236
vn -0.0000 -0.0000 -1.0000
vn -0.0000 1.0000 -0.0000
vn 1.0000 -0.0000 -0.0000
vn -0.0000 -1.0000 -0.0000
vn -1.0000 -0.0000 -0.0000
vn -0.0086 1.0000 -0.0000
vn -1.0000 0.0064 -0.0000
vn 1.0000 -0.0012 -0.0000
vn -0.0000 -0.0000 1.0000
vn -1.0000 0.0012 -0.0000
vn 1.0000 -0.0064 -0.0000
vn -0.0001 -1.0000 -0.0000
vn -1.0000 -0.0009 -0.0000
vn 0.0082 -1.0000 -0.0000
vn 1.0000 0.0009 -0.0000
vn 1.0000 -0.0016 -0.0000
vn -1.0000 0.0016 -0.0000
vt 0.107539 0.514673
vt 0.430157 0.825657
vt 0.492449 0.514673
vt 0.107539 0.792883
vt 0.770659 0.514673
vt 0.294185 0.827230
vt 0.430157 0.514673
vt 0.492831 0.203690
vt 0.215078 0.827230
vt 0.413725 0.203690
vt 0.752774 0.718363
vt 0.645235 0.928121
vt 0.752774 0.514673
vt 0.413725 0.000000
vt 0.645235 0.747886
vt 0.822057 0.622212
vt 0.593959 0.000000
vt 0.773192 0.622212
vt 0.593959 0.048865
vt 0.752887 0.622212
vt 0.537696 0.747935
vt 0.593959 0.069170
vt 0.827219 0.000000
vt 0.537696 0.514673
vt 0.827219 0.067260
vt 0.827219 0.132990
vt 0.827219 0.200250
vt 0.827219 0.312223
vt 0.826072 0.379482
vt 0.107539 0.848295
vt 0.827219 0.447414
vt 0.826072 0.514673
vt 0.215078 0.842357
vt 0.322617 0.514673
vt 0.495423 0.511703
vt 0.215078 0.570071
vt 0.767710 0.511703
vt 0.458579 0.747934
vt 0.322617 0.827230
vt 0.495807 0.199146
vt 0.537696 0.747934
vt 0.752774 0.718363
vt 0.416690 0.199141
vt 0.430157 0.825657
vt 0.752774 0.914533
vt 0.416690 0.002970
vt 0.752774 0.514673
vt 0.430157 1.000000
vt 0.591034 0.002970
vt 0.798669 0.514673
vt 0.591034 0.048865
vt 0.645235 0.514673
vt 0.822057 0.514673
vt 0.591034 0.072253
vt 0.934758 0.447414
vt 0.645235 0.747886
vt 0.824244 0.070252
vt 0.934758 0.577989
vt 0.824244 0.200828
vt 0.934758 0.755716
vt 0.823108 0.378553
vt 0.934758 0.888866
vt 0.215078 0.514673
vt 0.823108 0.511703
vt 0.107539 0.842357
vt 0.081816 0.002970
vt 0.215078 0.514673
vt 0.354102 0.002970
vt 0.107539 0.570071
vt 0.458579 0.855474
vt 0.215078 0.827230
vt 0.082200 0.315527
vt 0.003083 0.315532
vt 0.537696 0.855474
vt 0.645235 0.718363
vt 0.322618 0.825657
vt 0.645235 0.914533
vt 0.003083 0.511703
vt 0.752774 0.622212
vt 0.177426 0.511703
vt 0.322618 1.000000
vt 0.798669 0.622212
vt 0.177426 0.465808
vt 0.537696 0.514673
vt 0.822057 0.622212
vt 0.177426 0.442420
vt 0.827219 0.447414
vt 0.537696 0.747886
vt 0.410637 0.444421
vt 0.410637 0.313845
vt 0.827219 0.577989
vt 0.409500 0.136120
vt 0.827219 0.755716
vt 0.409500 0.002970
vt 0.827219 0.888866
vt 0.107539 0.514673
vt 0.078842 0.000000
vt 0.000000 0.514673
vt 0.322618 0.825657
vt 0.357052 0.000000
vt 0.000000 0.792883
vt 0.294185 0.934770
vt 0.322618 0.514673
vt 0.079224 0.310983
vt 0.215078 0.934770
vt 0.000117 0.310983
vt 0.645235 0.718363
vt 0.537696 0.928121
vt 0.645235 0.514673
vt 0.000117 0.514673
vt 0.180352 0.514673
vt 0.537696 0.747886
vt 0.822057 0.729751
vt 0.180352 0.465808
vt 0.773192 0.729751
vt 0.180352 0.445503
vt 0.752887 0.729751
vt 0.430157 0.747935
vt 0.934758 0.000000
vt 0.413611 0.447413
vt 0.430157 0.514673
vt 0.934758 0.132990
vt 0.413611 0.314423
vt 0.934758 0.312223
vt 0.412465 0.135191
vt 0.000000 0.848295
vt 0.934758 0.447414
vt 0.412464 0.000000
vt 0.078909 0.054789
vt 0.322618 0.770867
vt 0.322617 0.560140
vt 0.495479 0.466236
vt 0.215078 0.566147
vt 0.081879 0.054445
vt 0.430157 0.777658
vt 0.492508 0.466674
vt 0.079013 0.139670
vt 0.322618 0.685987
vt 0.322617 0.649743
vt 0.495589 0.376633
vt 0.215078 0.652256
vt 0.081985 0.140553
vt 0.430157 0.691272
vt 0.492614 0.380288
vt 0.413611 0.070992
vt 0.752774 0.585665
vt 0.413656 0.043191
vt 0.752774 0.557864
vt 0.000000 0.441479
vt 0.645235 0.587867
vt 0.645235 0.564970
vt 0.000037 0.464376
vt 0.002970 0.441301
vt 0.645235 0.844131
vt 0.416582 0.070660
vt 0.752774 0.846844
vt 0.645235 0.867633
vt 0.003008 0.464803
vt 0.416640 0.034280
vt 0.752774 0.883224
vt 0.206448 0.630042
vt 0.752887 0.729751
vt 0.822057 0.667017
vt 0.206448 0.782386
vt 0.758827 0.729751
vt 0.822057 0.514673
vt 0.145431 0.782386
vt 0.758827 0.790768
vt 0.825027 0.667017
vt 0.145431 0.630042
vt 0.752887 0.790768
vt 0.825027 0.819361
vt 0.098909 0.729962
vt 0.755857 0.729751
vt 0.825027 0.667017
vt 0.037892 0.729962
vt 0.755857 0.790768
vt 0.822057 0.819361
vt 0.098909 0.577619
vt 0.755857 0.729751
vt 0.825027 0.514673
vt 0.037892 0.577619
vt 0.755857 0.790768
vt 0.822057 0.667017
s 0
usemtl Material.003
f 11/29/1 12/32/1 24/64/1 23/61/1
f 2/4/2 12/30/2 48/126/2 38/101/2
f 21/55/3 22/58/3 34/91/3 33/87/3
f 65/161/4 14/36/4 13/33/4 66/164/4
f 66/164/4 13/33/4 25/65/4 26/69/4 14/36/4 65/161/4 68/170/4 67/167/4
f 12/31/5 11/28/5 47/124/5 48/127/5
f 20/52/6 21/56/6 33/88/6 32/84/6
f 4/9/2 3/6/2 39/102/2 40/105/2
f 11/28/7 10/26/7 46/122/7 47/124/7
f 19/50/3 20/53/3 32/85/3 31/82/3
f 3/7/8 56/143/8 53/138/8 39/103/8
f 10/26/5 9/23/5 45/119/5 46/122/5
f 18/47/3 19/50/3 31/82/3 30/79/3
f 26/68/9 25/66/9 37/97/9 38/100/9
f 25/66/9 51/134/9 49/129/9 37/97/9
f 27/72/9 28/73/9 40/106/9 39/104/9
f 28/73/9 61/153/9 59/149/9 40/106/9
f 29/78/9 30/80/9 42/111/9 41/110/9
f 30/80/9 31/83/9 43/114/9 42/111/9
f 31/83/9 32/86/9 44/116/9 43/114/9
f 32/86/9 33/89/9 45/120/9 44/116/9
f 33/89/9 34/90/9 46/123/9 45/120/9
f 34/90/9 35/92/9 47/125/9 46/123/9
f 35/92/9 36/94/9 48/128/9 47/125/9
f 36/94/9 26/68/9 38/100/9 48/128/9
f 13/34/10 50/131/10 51/133/10 25/67/10
f 6/15/4 5/12/4 41/108/4 42/112/4
f 22/58/11 23/60/11 35/93/11 34/91/11
f 15/38/12 16/41/12 28/74/12 27/70/12
f 7/18/5 6/16/5 42/113/5 43/115/5
f 23/60/3 24/62/3 36/95/3 35/93/3
f 16/42/13 62/156/13 61/154/13 28/75/13
f 8/20/5 7/18/5 43/115/5 44/117/5
f 24/63/4 14/36/4 26/69/4 36/96/4
f 17/44/2 18/48/2 30/81/2 29/76/2
f 9/24/14 8/21/14 44/118/14 45/121/14
f 69/173/2 2/4/2 38/101/2 37/98/2 1/1/2 71/179/2 72/182/2 70/176/2
f 1/1/2 2/4/2 69/173/2 71/179/2
f 58/147/1 5/14/1 17/46/1 64/159/1
f 51/133/10 50/131/10 54/139/10 55/141/10
f 57/145/1 58/147/1 64/159/1 62/155/1
f 49/130/8 52/135/8 1/2/8 37/99/8
f 10/27/1 11/29/1 23/61/1 22/59/1
f 49/129/9 51/134/9 55/142/9 53/137/9
f 9/25/1 10/27/1 22/59/1 21/57/1
f 55/141/10 54/139/10 15/39/10 27/71/10
f 53/137/9 55/142/9 27/72/9 39/104/9
f 4/10/1 57/145/1 62/155/1 16/43/1
f 53/138/8 56/143/8 52/135/8 49/130/8
f 8/22/1 9/25/1 21/57/1 20/54/1
f 3/8/1 4/10/1 16/43/1 15/40/1
f 7/19/1 8/22/1 20/54/1 19/51/1
f 56/144/1 3/8/1 15/40/1 54/140/1
f 52/136/1 56/144/1 54/140/1 50/132/1
f 1/3/1 52/136/1 50/132/1 13/35/1
f 59/150/15 57/146/15 4/11/15 40/107/15
f 60/151/16 41/109/16 5/13/16 58/148/16
f 59/149/9 61/153/9 63/158/9 60/152/9
f 6/17/1 7/19/1 19/51/1 18/49/1
f 61/154/17 62/156/17 64/160/17 63/157/17
f 64/160/17 17/45/17 29/77/17 63/157/17
f 58/148/16 57/146/16 59/150/16 60/151/16
f 5/14/1 6/17/1 18/49/1 17/46/1
f 29/78/9 41/110/9 60/152/9 63/158/9
f 12/32/1 2/5/1 14/37/1 24/64/1
f 2/5/1 1/3/1 13/35/1 14/37/1
usemtl 
f 71/180/5 66/165/5 67/168/5 72/183/5
f 70/177/3 68/171/3 65/162/3 69/174/3
f 65/163/9 66/166/9 71/181/9 69/175/9
f 68/172/1 70/178/1 72/184/1 67/169/1
